# xmcd CD database file
#
# Track frame offsets:
#	150
#	20215
#	47805
#	79403
#	111102
#	129126
#	154414
#	186066
#	201541
#	226533
#
# Disc length: 3465 seconds
#
# Revision: 0
# Processed by: cddbd v1.5PL3 Copyright (c) Steve Scherf et al.
# Submitted via: CDex 1.51
#
DISCID=830d870a
DTITLE=Chuck Anderson - Angel Blue
DYEAR=2002
DGENRE=Jazz
TTITLE0=Aqua Blue
TTITLE1=Soft Breezes
TTITLE2=Angel Blue
TTITLE3=Pirouette
TTITLE4=Street Strut
TTITLE5=Flyin' Free
TTITLE6=Danielle
TTITLE7=VSQ
TTITLE8=Elenor Rigby Medely
TTITLE9=Dance Of The Algons
EXTD=YEAR: 2002
EXTT0=
EXTT1=
EXTT2=
EXTT3=
EXTT4=
EXTT5=
EXTT6=
EXTT7=
EXTT8=
EXTT9=
PLAYORDER=
